<svg width="189" height="255" viewBox="0 0 189 255" fill="none" xmlns="http://www.w3.org/2000/svg">
<path d="M131.016 1C132.388 1 133.5 2.1119 133.5 3.4835V21.3579C133.5 24.01 132.446 26.5536 130.571 28.4289L123.929 35.0711C122.054 36.9464 121 39.49 121 42.1421V102.304C121 104.988 122.079 107.559 123.994 109.44L145.506 130.56C147.421 132.441 148.5 135.012 148.5 137.696V154.93C148.5 156.902 146.902 158.5 144.93 158.5C144.012 158.5 143.13 158.147 142.465 157.513L103.097 119.955C101.119 118.068 100 115.453 100 112.719L100 34.6914C100 32.0101 101.077 29.4412 102.989 27.5612L129.275 1.71271C129.74 1.25596 130.365 1 131.016 1Z" fill="white"/>
<path d="M173.571 80.0711C175.446 81.9464 176.5 84.49 176.5 87.1421V140.858C176.5 143.51 175.446 146.054 173.571 147.929L164.464 157.036C163.527 157.973 162.255 158.5 160.929 158.5H159.5C157.843 158.5 156.5 157.157 156.5 155.5V94.3799C156.5 92.8742 155.822 91.4487 154.653 90.4993L151.109 87.6198C150.063 86.7702 148.5 87.5143 148.5 88.8615V114.561C148.5 115.46 148.051 116.299 147.303 116.798C146.251 117.5 144.852 117.373 143.943 116.493L133.046 105.948C131.099 104.064 130 101.471 130 98.7615V44.182C130 42.4246 131.425 41 133.182 41C134.026 41 134.835 41.3352 135.432 41.932L173.571 80.0711Z" fill="white"/>
<path d="M131.016 1C132.388 1 133.5 2.1119 133.5 3.4835V21.3579C133.5 24.01 132.446 26.5536 130.571 28.4289L123.929 35.0711C122.054 36.9464 121 39.49 121 42.1421V102.304C121 104.988 122.079 107.559 123.994 109.44L145.506 130.56C147.421 132.441 148.5 135.012 148.5 137.696V154.93C148.5 156.902 146.902 158.5 144.93 158.5C144.012 158.5 143.13 158.147 142.465 157.513L103.097 119.955C101.119 118.068 100 115.453 100 112.719L100 34.6914C100 32.0101 101.077 29.4412 102.989 27.5612L129.275 1.71271C129.74 1.25596 130.365 1 131.016 1Z" stroke="white"/>
<path d="M173.571 80.0711C175.446 81.9464 176.5 84.49 176.5 87.1421V140.858C176.5 143.51 175.446 146.054 173.571 147.929L164.464 157.036C163.527 157.973 162.255 158.5 160.929 158.5H159.5C157.843 158.5 156.5 157.157 156.5 155.5V94.3799C156.5 92.8742 155.822 91.4487 154.653 90.4993L151.109 87.6198C150.063 86.7702 148.5 87.5143 148.5 88.8615V114.561C148.5 115.46 148.051 116.299 147.303 116.798C146.251 117.5 144.852 117.373 143.943 116.493L133.046 105.948C131.099 104.064 130 101.471 130 98.7615V44.182C130 42.4246 131.425 41 133.182 41C134.026 41 134.835 41.3352 135.432 41.932L173.571 80.0711Z" stroke="white"/>
<path d="M53.3649 252.345C54.1171 253.385 55.3223 254 56.6053 254H131.844C133.121 254 134.32 253.391 135.073 252.361L184.467 184.805C187.078 181.233 186.707 176.294 183.591 173.154L182.935 172.493C179.034 168.562 172.542 169.053 169.277 173.526L126.636 231.951C125.883 232.982 124.682 233.592 123.405 233.592H113.075C111.872 233.592 111.159 232.248 111.832 231.252L141.104 187.954C143.441 184.498 143.007 179.872 140.068 176.91C136.248 173.06 129.879 173.586 126.742 178.012L122.098 184.564C121.723 185.093 121.115 185.408 120.466 185.408H119.752C119.087 185.408 118.465 185.077 118.093 184.525L113.885 178.275C110.84 173.752 104.419 173.144 100.579 177.014C97.6934 179.922 97.2451 184.455 99.5051 187.872L108 200.713L96.0683 220.936C95.7936 221.402 95.2932 221.688 94.7525 221.688C94.2432 221.688 93.7673 221.434 93.4836 221.011L79.875 200.713L88.8225 187.776C91.1354 184.431 90.7358 179.913 87.8717 177.027C84.0606 173.186 77.6712 173.872 74.7614 178.433L70.9022 184.483C70.5349 185.059 69.899 185.408 69.216 185.408H68.5339C67.8854 185.408 67.2772 185.093 66.9022 184.564L62.2208 177.959C59.1037 173.561 52.7739 173.038 48.9771 176.865C46.0225 179.842 45.6198 184.507 48.0204 187.946L78.2291 231.234C78.9231 232.228 78.2116 233.592 76.9991 233.592H65.5952C64.3178 233.592 63.1172 232.982 62.3642 231.951L19.7231 173.526C16.4581 169.053 9.96578 168.562 6.06482 172.493L5.38279 173.18C2.27836 176.309 1.89638 181.226 4.48035 184.796L53.3649 252.345Z" fill="white" stroke="white"/>
<path d="M67.5005 62.075C67.5005 59.4626 68.5228 56.954 70.3487 55.0856L83.855 41.2652C85.7346 39.3418 89.0005 40.6727 89.0005 43.362L89.0005 113.669C89.0005 116.432 87.857 119.072 85.8413 120.963L45.6161 158.689C45.06 159.21 44.3262 159.5 43.5638 159.5L43.0005 159.5C41.3437 159.5 40.0005 158.157 40.0005 156.5L40.0005 138.142C40.0005 135.49 41.0541 132.947 42.9295 131.071L64.5716 109.429C66.447 107.554 67.5005 105.01 67.5005 102.358L67.5005 62.075Z" fill="white"/>
<path d="M33.5 125.425C33.5 128.038 32.4777 130.546 30.6519 132.415L17.1456 146.235C15.2659 148.159 12 146.828 12 144.138L12 76.6259C12 73.9835 13.0458 71.4485 14.909 69.5748L55.3703 28.8847C55.9334 28.3184 56.699 28 57.4976 28L58 28C59.6568 28 61 29.3432 61 31L61 49.3581C61 52.0103 59.9464 54.5538 58.0711 56.4292L36.4289 78.0713C34.5536 79.9467 33.5 82.4902 33.5 85.1424L33.5 125.425Z" fill="white"/>
<path d="M41.0004 86.1946C41.0004 85.1117 41.4395 84.0751 42.2172 83.3216L56.1279 69.8457C56.6875 69.3036 57.4361 69.0004 58.2153 69.0004H59.0004C59.5527 69.0004 60.0004 69.4481 60.0004 70.0004V102.38C60.0004 103.419 59.5957 104.418 58.872 105.164L44.2951 120.197C44.1067 120.391 43.8477 120.5 43.5772 120.5H42.0004C41.4481 120.5 41.0004 120.053 41.0004 119.5V86.1946Z" fill="white" stroke="white"/>
</svg>
